<?xml version="1.0" encoding="utf-8"?>
<!-- Generator: Adobe Illustrator 17.0.0, SVG Export Plug-In . SVG Version: 6.00 Build 0)  -->
<!DOCTYPE svg PUBLIC "-//W3C//DTD SVG 1.1//EN" "http://www.w3.org/Graphics/SVG/1.1/DTD/svg11.dtd">
<svg version="1.1" id="Layer_1" xmlns="http://www.w3.org/2000/svg" xmlns:xlink="http://www.w3.org/1999/xlink" x="0px" y="0px"
	 width="468.467px" height="105.315px" viewBox="71.623 343.502 468.467 105.315"
	 enable-background="new 71.623 343.502 468.467 105.315" xml:space="preserve">
<g>
	<polygon fill="#555457" points="74.364,343.534 85.266,343.534 85.266,345.064 76.086,345.064 76.086,350.196 84.309,350.196 
		84.309,351.726 76.086,351.726 76.086,356.985 85.393,356.985 85.393,358.515 74.364,358.515 	"/>
	<path fill="#555457" d="M88.995,343.534h5.228c4.749,0,8.001,3.219,8.001,7.459v0.032c0,4.208-3.283,7.491-8.001,7.491h-5.228
		V343.534L88.995,343.534z M90.716,345.096v11.858h3.538c3.825,0,6.247-2.582,6.247-5.897v-0.032c0-3.315-2.423-5.929-6.247-5.929
		H90.716L90.716,345.096z"/>
	<polygon fill="#555457" points="104.104,343.534 105.984,343.534 110.287,356.029 114.399,343.502 115.802,343.502 
		119.946,356.029 124.249,343.534 126.034,343.534 120.647,358.642 119.213,358.642 115.069,346.466 110.925,358.642 
		109.491,358.642 	"/>
	<polygon fill="#555457" points="129.476,343.534 131.166,343.534 131.166,358.515 129.476,358.515 	"/>
	<polygon fill="#555457" points="135.787,343.534 137.381,343.534 146.88,355.551 146.88,343.534 148.537,343.534 148.537,358.515 
		147.199,358.515 137.445,346.243 137.445,358.515 135.787,358.515 	"/>
	<path fill="#4C4B50" d="M295.131,382.485c0-4.813,0.924-6.598,7.172-6.853v-2.454h-20.942v2.454
		c5.164,0.414,6.758,2.04,6.758,6.662v39.461c0,4.654-1.594,6.247-6.758,6.662v2.454h38.186l1.275-13.77h-2.709
		c-1.689,7.618-3.729,10.136-10.296,10.136h-12.686V382.485L295.131,382.485z M344.824,430.903v-2.359
		c-4.813-0.414-5.929-1.53-5.929-6.184v-33.532h-1.084l-11.73,3.124v2.104c4.909,0.255,6.184,1.339,6.184,7.427v20.878
		c0,4.717-1.434,5.737-5.929,6.184v2.359H344.824L344.824,430.903z M340.011,376.747c0-2.869-2.104-5.068-4.972-5.068
		s-4.973,2.199-4.973,5.068s2.104,5.068,4.973,5.068S340.011,379.616,340.011,376.747L340.011,376.747z M383.456,409.515
		c0,13.515-3.474,17.659-10.487,17.659c-5.323,0-8.096-2.614-11.061-5.578v-21.803c1.944-2.454,6.407-5.929,11.411-5.929
		C380.237,393.896,383.456,397.785,383.456,409.515L383.456,409.515z M361.144,425.421c2.773,3.028,7.268,6.343,13.419,6.343
		c10.232,0,16.129-8.192,16.129-22.057c0-13.929-6.088-20.783-15.3-20.783c-5.737,0-10.296,3.474-13.515,6.917v-18.009
		c0-3.729-0.414-6.503-0.924-8.096h-1.084l-11.061,2.359v2.295c4.909,0.255,6.407,1.275,6.407,7.427v39.461
		c0,5.323-0.255,7.682-0.924,9.626h3.889C359.104,429.628,360.634,426.919,361.144,425.421L361.144,425.421z M409.116,398.295
		c-0.096-4.399-0.924-7.937-1.53-9.467h-1.084l-10.041,3.219v2.104c4.909,0.255,6.184,1.339,6.184,7.427v20.783
		c0,4.717-1.434,5.737-5.929,6.184v2.359h19.762v-2.359c-5.674-0.414-7.172-1.53-7.172-6.184V407.73
		c0-8.096,2.709-11.316,9.626-11.316c1.084,0,1.785,0.096,2.295,0.255l1.785-7.778c-0.606-0.159-1.339-0.351-2.104-0.351
		C416.224,388.573,412.176,393.036,409.116,398.295L409.116,398.295z M459.159,420.097c0-7.618,0.351-14.694,0.351-17.499
		c0-9.722-5.068-13.929-14.184-13.929c-5.482,0-11.73,2.199-15.3,4.144v7.172h4.303c0.669-3.984,2.869-7.618,10.296-7.618
		c6.407,0,8.192,3.283,8.192,10.742v3.984c-1.084-0.096-2.454-0.096-3.474-0.096c-12.941,0-21.643,3.379-21.643,13.356
		c0,7.522,5.323,11.73,13.101,11.73c6.088,0,10.232-4.303,11.921-7.682c0.606,4.239,1.785,7.013,7.363,7.013
		c1.944,0,4.048-0.351,5.323-0.765v-2.454C460.243,427.684,459.159,426.345,459.159,420.097L459.159,420.097z M452.402,420.926
		c-2.04,3.538-5.482,6.853-9.722,6.853c-5.227,0-7.777-1.944-7.777-8.033c0-6.598,4.303-9.307,14.28-9.307
		c1.275,0,2.55,0.096,3.474,0.159L452.402,420.926L452.402,420.926z M482.46,398.295c-0.096-4.399-0.924-7.937-1.53-9.467h-1.084
		l-10.041,3.219v2.104c4.909,0.255,6.152,1.339,6.152,7.427v20.783c0,4.717-1.434,5.737-5.929,6.184v2.359h19.762v-2.359
		c-5.674-0.414-7.172-1.53-7.172-6.184V407.73c0-8.096,2.709-11.316,9.626-11.316c1.084,0,1.785,0.096,2.295,0.255l1.785-7.778
		c-0.606-0.159-1.339-0.351-2.104-0.351C489.568,388.573,485.52,393.036,482.46,398.295L482.46,398.295z M507.131,448.817
		c7.618-1.689,11.666-6.853,14.949-16.384l11.826-34.042c1.53-4.303,2.869-5.674,6.184-6.088v-2.359h-14.886v2.359
		c4.144,0.255,5.419,1.084,5.419,2.614c0,0.51-0.255,1.785-0.606,2.709l-6.088,18.838c-1.53,4.654-2.773,8.702-3.219,10.136h-0.351
		c-0.51-2.773-1.594-7.682-3.124-11.921l-6.088-17.053c-0.351-1.02-0.606-1.785-0.606-2.454c0-1.785,1.339-2.614,5.419-2.869v-2.359
		h-17.754v2.359c3.283,0.51,4.654,1.849,6.184,6.088l6.757,18.424c1.944,5.419,3.219,10.041,4.303,14.376l3.219-0.51
		c-2.709,9.053-7.268,11.061-13.419,12.75L507.131,448.817L507.131,448.817z"/>
	<path fill="#E4701E" d="M106.399,424.401c-1.594,1.179-3.889,1.849-7.427,1.849c-8.192,0-12.591-5.323-12.591-24.257
		c0-18.073,4.048-24.831,12.686-24.831c6.502,0,8.447,3.379,9.722,9.818h9.308v-11.475c-4.144-2.614-10.296-4.303-18.679-4.303
		c-16.479,0-27.795,9.786-27.795,31.174c0,19.093,10.041,29.58,26.966,29.58c7.363,0,15.969-1.594,21.037-5.483v-14.949
		c0-4.813,1.339-6.088,5.483-6.088v-4.048H99.577v4.048c5.578,0,6.853,1.275,6.853,6.088v12.878H106.399z M151.916,430.903v-3.793
		c-4.399-0.096-5.164-1.084-5.164-5.929v-33.947h-1.849l-15.81,2.964v3.729c4.239,0.159,5.068,1.02,5.068,7.172v20.081
		c0,4.813-0.924,5.833-5.164,5.929v3.793H151.916L151.916,430.903z M147.454,375.982c0-4.048-3.219-7.363-7.363-7.363
		c-4.239,0-7.618,3.283-7.618,7.363c0,4.144,3.379,7.427,7.427,7.427C144.171,383.409,147.454,380.126,147.454,375.982
		L147.454,375.982z M200.016,399.634c0-8.702-5.323-12.75-12.24-12.75c-6.598,0-11.061,3.379-14.694,7.522
		c-0.255-3.379-1.849-6.662-2.454-7.618h-1.275l-13.611,3.379v3.729c4.239,0.159,5.068,1.02,5.068,7.172v20.113
		c0,4.813-0.924,5.833-5.164,5.929v3.793h22.886v-3.793c-4.399-0.096-5.164-1.179-5.164-5.738v-22.376
		c2.199-1.689,4.717-3.219,8.447-3.219c3.538,0,5.578,1.785,5.578,6.853v18.742c0,4.558-0.765,5.674-5.068,5.738v3.793h22.631
		v-3.793c-4.048-0.096-4.972-1.084-4.972-5.929v-21.547H200.016z M252.801,399.634c0-8.702-5.323-12.75-12.24-12.75
		c-6.598,0-11.061,3.379-14.694,7.522c-0.255-3.379-1.849-6.662-2.454-7.618h-1.275l-13.611,3.379v3.729
		c4.239,0.159,5.068,1.02,5.068,7.172v20.113c0,4.813-0.924,5.833-5.164,5.929v3.793h22.886v-3.793
		c-4.399-0.096-5.164-1.179-5.164-5.738v-22.376c2.199-1.689,4.717-3.219,8.447-3.219c3.538,0,5.578,1.785,5.578,6.853v18.742
		c0,4.558-0.765,5.674-5.068,5.738v3.793h22.631v-3.793c-4.048-0.096-4.972-1.084-4.972-5.929v-21.547H252.801z"/>
</g>
</svg>
