<?xml version="1.0" encoding="UTF-8"?>
<svg width="1200pt" height="1200pt" version="1.1" viewBox="0 0 1200 1200" xmlns="http://www.w3.org/2000/svg">
 <path d="m251.51 63.395h72.793c10.922 0 19.848 8.9414 19.848 19.859v70.586h-112.5v-70.582c0.011718-10.922 8.9414-19.863 19.859-19.863zm-219.86 263.68h1136.7v-116.02c0-30.949-25.309-56.258-56.258-56.258h-143.76v82.801c0 10.922-8.9297 19.859-19.848 19.859h-72.793c-10.922 0-19.848-8.9414-19.848-19.859v-82.801l-199.6 0.003906v82.801c0 10.922-8.9297 19.859-19.848 19.859h-72.793c-10.922 0-19.848-8.9414-19.848-19.859v-82.801h-199.61v82.801c0 10.922-8.9297 19.859-19.848 19.859h-72.793c-10.922 0-19.848-8.9414-19.848-19.859v-82.801h-143.79c-30.938 0-56.258 25.309-56.258 56.258l0.003906 116.01zm0 58.598v694.68c0 30.938 25.309 56.258 56.258 56.258h1024.2c30.938 0 56.258-25.32 56.258-56.258v-694.68zm135.82 89.293h95.16c9.0469 0 16.402 7.3789 16.402 16.402v95.16c0 9.0352-7.3555 16.402-16.402 16.402h-95.16c-9.0469 0-16.402-7.3672-16.402-16.402v-95.16c-0.003906-9.0234 7.3516-16.402 16.402-16.402zm240.24 111.56v-95.16c0-9.0234 7.3555-16.402 16.402-16.402h95.16c9.0469 0 16.402 7.3789 16.402 16.402v95.16c0 9.0352-7.3555 16.402-16.402 16.402h-95.16c-9.0469 0.003907-16.402-7.3672-16.402-16.402zm256.63 222.19v-95.16c0-9.0352 7.3555-16.402 16.402-16.402h95.16c9.0469 0 16.402 7.3672 16.402 16.402v95.16c0 9.0352-7.3555 16.402-16.402 16.402h-95.16c-9.0352 0.003906-16.402-7.3633-16.402-16.402zm273.05 110.63h95.16c9.0469 0 16.402 7.3672 16.402 16.402v95.16c0 9.0352-7.3555 16.402-16.402 16.402h-95.16c-9.0469 0-16.402-7.3672-16.402-16.402v-95.16c0-9.0352 7.3555-16.402 16.402-16.402zm-513.27-222.19h95.16c9.0469 0 16.402 7.3672 16.402 16.402v95.16c0 9.0352-7.3555 16.402-16.402 16.402h-95.16c-9.0469 0-16.402-7.3672-16.402-16.402v-95.16c-0.003906-9.0352 7.3516-16.402 16.402-16.402zm256.64 222.19h95.16c9.0469 0 16.402 7.3672 16.402 16.402v95.16c0 9.0352-7.3555 16.402-16.402 16.402h-95.16c-9.0469 0-16.402-7.3672-16.402-16.402v-95.16c-0.011719-9.0352 7.3555-16.402 16.402-16.402zm-256.64 0h95.16c9.0469 0 16.402 7.3672 16.402 16.402v95.16c0 9.0352-7.3555 16.402-16.402 16.402h-95.16c-9.0469 0-16.402-7.3672-16.402-16.402v-95.16c-0.003906-9.0352 7.3516-16.402 16.402-16.402zm-256.64-222.19h95.16c9.0469 0 16.402 7.3672 16.402 16.402v95.16c0 9.0352-7.3555 16.402-16.402 16.402h-95.16c-9.0469 0-16.402-7.3672-16.402-16.402v-95.16c-0.003906-9.0352 7.3516-16.402 16.402-16.402zm0 222.19h95.16c9.0469 0 16.402 7.3672 16.402 16.402v95.16c0 9.0352-7.3555 16.402-16.402 16.402h-95.16c-9.0469 0-16.402-7.3672-16.402-16.402v-95.16c-0.003906-9.0352 7.3516-16.402 16.402-16.402zm496.87-332.82v-95.16c0-9.0234 7.3555-16.402 16.402-16.402h95.16c9.0469 0 16.402 7.3789 16.402 16.402v95.16c0 9.0352-7.3555 16.402-16.402 16.402h-95.16c-9.0352 0.003907-16.402-7.3672-16.402-16.402zm273.05 110.63h95.16c9.0469 0 16.402 7.3672 16.402 16.402v95.16c0 9.0352-7.3555 16.402-16.402 16.402h-95.16c-9.0469 0-16.402-7.3672-16.402-16.402v-95.16c0-9.0352 7.3555-16.402 16.402-16.402zm0-222.19h95.16c9.0469 0 16.402 7.3789 16.402 16.402v95.16c0 9.0352-7.3555 16.402-16.402 16.402h-95.16c-9.0469 0-16.402-7.3672-16.402-16.402v-95.16c0-9.0234 7.3555-16.402 16.402-16.402zm-61.68-411.57h72.793c10.922 0 19.848 8.9414 19.848 19.859v70.586h-112.5v-70.582c0-10.922 8.9297-19.863 19.859-19.863zm-312.09 0h72.793c10.922 0 19.848 8.9414 19.848 19.859v70.586h-112.5l-0.003906-70.582c0.015624-10.922 8.9414-19.863 19.863-19.863z" fill="#fff" fill-rule="evenodd"/>
</svg>
