<?xml version="1.0" encoding="UTF-8"?>
<svg width="1200pt" height="1200pt" version="1.1" viewBox="0 0 1200 1200" xmlns="http://www.w3.org/2000/svg">
 <path d="m1186.8 242.84-0.1875-1.7812c-6.0742-58.332-32.039-112.8-73.523-154.25-41.488-41.453-95.977-67.371-154.31-73.398-85.523-8.9062-226.45-13.406-358.73-13.406s-273.21 4.5-358.59 13.406c-58.359 6.0156-112.87 31.922-154.39 73.375-41.52 41.449-67.508 95.926-73.613 154.27l-0.16406 1.7812c-7.4062 70.922-13.242 82.312-13.242 231.89 0 149.58 5.8359 173.72 13.242 244.66l0.16406 1.7578c6.0977 58.328 32.07 112.79 73.559 154.23 41.488 41.449 95.969 67.371 154.3 73.414 47.18 4.9219 111.23 8.4844 181.38 10.711l136.12 216.16c9.5469 15.145 26.195 24.332 44.098 24.332s34.551-9.1875 44.098-24.332l136.24-216.35c67.852-2.3438 129.66-5.7422 175.5-10.523 58.34-6.0234 112.83-31.938 154.32-73.391 41.492-41.453 67.457-95.922 73.535-154.26l0.1875-1.7812c7.4062-70.922 13.242-95.062 13.242-244.64 0-149.58-5.8359-160.95-13.242-231.89zm-586.9 598.71c-21.09-0.039063-41.301-8.4492-56.191-23.383-14.891-14.934-23.238-35.168-23.215-56.258s8.4219-41.305 23.348-56.203 35.156-23.262 56.246-23.25 41.309 8.3984 56.219 23.316c14.906 14.914 23.281 35.141 23.281 56.23-0.039063 21.109-8.4492 41.344-23.391 56.258-14.938 14.914-35.188 23.289-56.297 23.289zm106.88-366.96c-52.711 41.18-53.672 69.938-53.672 119.74 0 18.211-9.5625 39.281-56.508 39.281-39.281 0-52.688-14.367-52.688-64.195 0-82.383 36.398-121.66 64.172-145.62 31.617-26.836 85.266-56.531 85.266-108.26 0-44.062-38.32-65.156-86.227-65.156-97.711 0-76.641 73.781-128.37 73.781-25.781 0-57.492-17.25-57.492-54.609 0-51.727 59.414-128.39 188.74-128.39 122.62 0 204.07 67.969 204.07 158.09s-81.445 155.2-107.3 175.34z" fill="#fff"/>
</svg>
