<?xml version="1.0" encoding="utf-8"?>
<!-- Generator: Adobe Illustrator 26.0.3, SVG Export Plug-In . SVG Version: 6.00 Build 0)  -->
<svg version="1.1" id="Layer_1" xmlns="http://www.w3.org/2000/svg" xmlns:xlink="http://www.w3.org/1999/xlink" x="0px" y="0px"
	 viewBox="0 0 207.67 37.07" style="enable-background:new 0 0 207.67 37.07;" xml:space="preserve">
<style type="text/css">
	.st0{fill:#010101;}
	.st1{fill:#D16027;}
</style>
<path class="st0" d="M137.51,20.83v4.81c0.11,1.14,0,2.29-0.33,3.39c-0.3,0.68-0.97,1.13-1.72,1.14c-0.71,0.04-1.38-0.36-1.68-1
	c-0.32-0.64-0.37-1.35-0.37-3.5V10.58c0-1.83,0.05-2.42,0.37-3c0.38-0.59,1.03-0.94,1.73-0.92c1.57,0,2,0.86,2,3.88v3.67h7.77v-4.6
	c0-6.36-3.13-9.6-9.45-9.6c-2.64-0.13-5.25,0.65-7.39,2.21c-2,1.67-2.75,3.78-2.75,8.36v15.06c0,4.42,0.27,5.88,1.57,7.82
	c1.56,2.37,4.42,3.61,8.25,3.61c6.31,0,9.77-3.4,9.77-9.71v-6.53H137.51z"/>
<polygon class="st0" points="112.19,36.53 119.95,36.53 119.95,7.78 124.54,7.78 124.54,0.55 107.76,0.55 107.76,7.78 112.19,7.78 
	"/>
<polygon class="st0" points="72.84,36.53 88.49,36.53 88.49,29.47 80.56,29.47 80.56,0.55 72.84,0.55 "/>
<polygon class="st0" points="55.47,36.53 63.24,36.53 63.24,20.03 71.06,20.03 71.06,13.17 63.24,13.17 63.24,7.51 71.17,7.51 
	71.17,0.55 55.47,0.55 "/>
<polygon class="st0" points="147.75,36.53 155.57,36.53 155.57,19.65 159.67,19.65 159.67,36.53 167.44,36.53 167.44,0.55 
	159.67,0.55 159.67,12.74 155.57,12.74 155.57,0.55 147.75,0.55 "/>
<path class="st0" d="M188.25,36.53H196V20.01c0.21-0.04,0.43-0.05,0.65-0.05c2,0,2.7,0.86,2.7,3.72v12.85H207V23.48
	c0.06-3.62-0.81-5.29-3-5.77c2.7-0.65,3.67-2.7,3.67-8c0-6.47-2.48-9.17-8.36-9.17h-11.06V36.53z M195.96,13.53V7.19h1.67
	c1.84,0,2.65,1,2.65,3.34c0,2-0.87,3-2.75,3L195.96,13.53z"/>
<polygon class="st0" points="90.22,36.54 106.08,36.54 106.08,29.53 97.99,29.53 97.99,20.03 105.76,20.03 105.76,13.18 
	97.99,13.18 97.99,7.57 106.08,7.57 106.08,0.55 90.22,0.55 "/>
<polygon class="st0" points="169.91,36.54 185.77,36.54 185.77,29.53 177.68,29.53 177.68,20.03 185.45,20.03 185.45,13.18 
	177.68,13.18 177.68,7.57 185.78,7.57 185.78,0.55 169.91,0.55 "/>
<path class="st1" d="M53,0.55v36H39V6.01c-0.15,0.27-0.34,0.51-0.58,0.7l-0.07,0.06l-0.1,0.08h-0.09l-0.1,0.06L38,7.01h-0.1h-0.09
	h-0.12H37.6h-0.13h-0.09h-0.15H36.6h-0.15h-0.09h-0.13h-0.09h-0.12h-0.09h-0.11h-0.09l-0.1-0.06l-0.09-0.06h-0.08l-0.1-0.08l0,0
	C35.21,6.64,35.09,6.44,35,6.23l0,0l-0.09-0.14l0,0l-0.07-0.14l0,0c-0.03-0.05-0.05-0.1-0.07-0.15l0,0V5.63l0,0
	c0-0.06,0-0.13,0-0.19c-0.04-0.23-0.04-0.46,0-0.69c-0.08-0.64,0.14-1.28,0.58-1.74l0.24-0.18l0.21-0.14c0.26-0.15,0.45-0.4,0.5-0.7
	c0-0.26-0.13-0.52-0.58-0.52c-1,0-1.77,1-2.39,2.17c-0.57,1.29-1.05,2.63-1.41,4c0,0-0.66,2.37-1.51,5.47h4.25l-0.43,1.59H30
	c-0.79,2.87-1.67,6-2.29,8.08c-0.66,2.36-1.52,4.66-2.57,6.88c-1.08,2.21-3.8,6.89-8,6.89H0v-36h14v30.68
	c0.14-0.27,0.34-0.51,0.58-0.71l0.07-0.05c0.03-0.03,0.06-0.06,0.1-0.08l0.08-0.05l0.11-0.07h0.09l0.11-0.06h0.09h0.12h0.09h0.13
	h0.09h0.15h0.08h0.23c0.24,0,0.49,0.04,0.72,0.11c1.01,0.32,1.7,1.25,1.7,2.31c0,0.08,0,0.15,0,0.22s0,0.07,0,0.1s0,0.08,0,0.12
	v0.12c0,0,0,0.06,0,0.09s0,0.08,0,0.12v0.07c-0.01,0.05-0.03,0.1-0.05,0.14l0,0c0,0-0.11,0.2-0.17,0.3l0,0l-0.08,0.1
	c0,0.02,0,0.04,0,0.06l0,0l-0.1,0.12h-0.05c-0.12,0.12-0.25,0.23-0.39,0.32c-0.19,0.13-0.4,0.24-0.62,0.31
	c-0.15,0.02-0.29,0.07-0.42,0.13c-0.11,0.07-0.18,0.19-0.18,0.32c0,0.34,0.28,0.55,0.76,0.55c0.68,0.02,1.34-0.27,1.79-0.78
	c1.1-1.39,1.51-4.22,2.78-9.67c0.84-3.53,1.92-7.47,2.8-10.54h-3.55l0.43-1.59h3.32c0.29-1.27,0.66-2.51,1.11-3.73
	c0.74-2.26,2-4.32,3.68-6c0.3-0.3,0.63-0.6,1-0.87c0.32-0.25,0.65-0.48,1-0.69c0.31-0.19,0.62-0.37,0.95-0.53s0.61-0.26,0.92-0.37
	s0.6-0.17,0.9-0.23c0.29-0.06,0.58-0.1,0.87-0.12c0.58,0,1.19,0,1.74,0L53,0.55z"/>
</svg>
