<svg xmlns="http://www.w3.org/2000/svg" viewBox="0 0 344.82 39.84"><defs><style>.cls-1{fill:#d15e12;}</style></defs><g id="lockups"><path d="M137.51,20.82v4.81a8.79,8.79,0,0,1-.33,3.39,1.91,1.91,0,0,1-1.72,1.14,1.75,1.75,0,0,1-1.68-1c-.32-.64-.37-1.35-.37-3.5V10.57c0-1.83.05-2.42.37-3a2,2,0,0,1,1.73-.92c1.57,0,2,.86,2,3.88v3.67h7.77V9.6c0-6.36-3.13-9.6-9.45-9.6a11.54,11.54,0,0,0-7.39,2.21c-2,1.67-2.75,3.78-2.75,8.36V25.63c0,4.42.27,5.88,1.57,7.82,1.56,2.37,4.42,3.61,8.25,3.61,6.31,0,9.77-3.4,9.77-9.71V20.82Z"/><polygon points="112.19 36.52 119.95 36.52 119.95 7.77 124.54 7.77 124.54 0.54 107.76 0.54 107.76 7.77 112.19 7.77 112.19 36.52"/><polygon points="72.84 36.52 88.49 36.52 88.49 29.46 80.56 29.46 80.56 0.54 72.84 0.54 72.84 36.52"/><polygon points="55.47 36.52 63.24 36.52 63.24 20.02 71.06 20.02 71.06 13.16 63.24 13.16 63.24 7.5 71.17 7.5 71.17 0.54 55.47 0.54 55.47 36.52"/><polygon points="147.75 36.52 155.57 36.52 155.57 19.64 159.67 19.64 159.67 36.52 167.44 36.52 167.44 0.54 159.67 0.54 159.67 12.73 155.57 12.73 155.57 0.54 147.75 0.54 147.75 36.52"/><path d="M188.25,36.52H196V20a3.64,3.64,0,0,1,.65-.05c2,0,2.7.86,2.7,3.72V36.52H207V23.47c.06-3.62-.81-5.29-3-5.77,2.7-.65,3.67-2.7,3.67-8,0-6.47-2.48-9.17-8.36-9.17H188.25Zm7.71-23V7.18h1.67c1.84,0,2.65,1,2.65,3.34,0,2-.87,3-2.75,3Z"/><polygon points="90.22 36.53 106.08 36.53 106.08 29.52 97.99 29.52 97.99 20.02 105.76 20.02 105.76 13.17 97.99 13.17 97.99 7.56 106.08 7.56 106.08 0.54 90.22 0.54 90.22 36.53"/><polygon points="169.91 36.53 185.77 36.53 185.77 29.52 177.68 29.52 177.68 20.02 185.45 20.02 185.45 13.17 177.68 13.17 177.68 7.56 185.78 7.56 185.78 0.54 169.91 0.54 169.91 36.53"/><path class="cls-1" d="M53,.54v36H39V6a2.31,2.31,0,0,1-.58.7l-.07.06-.1.08-.09,0-.1.06L38,7,37.9,7l-.09,0-.12,0-.09,0-.13,0-.09,0-.15,0H36.6l-.15,0-.09,0-.13,0-.09,0-.12,0-.09,0-.11,0-.09,0-.1-.06-.09-.06-.08,0-.1-.08,0,0A2.53,2.53,0,0,1,35,6.22l0,0-.09-.14,0,0-.07-.14,0,0a1,1,0,0,1-.07-.15l0,0,0-.17v0c0-.06,0-.13,0-.19a2.22,2.22,0,0,1,0-.69A2.14,2.14,0,0,1,35.35,3l.24-.18.21-.14a1,1,0,0,0,.5-.7c0-.26-.13-.52-.58-.52-1,0-1.77,1-2.39,2.17a27,27,0,0,0-1.41,4S31.26,10,30.41,13.1h4.25l-.43,1.59H30c-.79,2.87-1.67,6-2.29,8.08a43.23,43.23,0,0,1-2.57,6.88c-1.08,2.21-3.8,6.89-8,6.89H0V.54H14V31.22a2.32,2.32,0,0,1,.58-.71l.07-.05a.39.39,0,0,1,.1-.08l.08-.05.11-.07.09,0,.11-.06.09,0,.12,0,.09,0,.13,0,.09,0,.15,0h.08l.23,0a2.46,2.46,0,0,1,.72.11,2.43,2.43,0,0,1,1.7,2.31c0,.08,0,.15,0,.22s0,.07,0,.1,0,.08,0,.12l0,.12s0,.06,0,.09,0,.08,0,.12l0,.07a.78.78,0,0,1-.05.14s0,0,0,0-.11.2-.17.3h0l-.08.1a.21.21,0,0,0,0,.06h0l-.1.12-.05,0a2.37,2.37,0,0,1-.39.32,2.4,2.4,0,0,1-.62.31,1.57,1.57,0,0,0-.42.13.38.38,0,0,0-.18.32c0,.34.28.55.76.55a2.3,2.3,0,0,0,1.79-.78c1.1-1.39,1.51-4.22,2.78-9.67.84-3.53,1.92-7.47,2.8-10.54H21.06l.43-1.59h3.32a30.79,30.79,0,0,1,1.11-3.73,15.17,15.17,0,0,1,3.68-6c.3-.3.63-.6,1-.87a10.56,10.56,0,0,1,1-.69c.31-.19.62-.37.95-.53s.61-.26.92-.37.6-.17.9-.23a6.5,6.5,0,0,1,.87-.12c.58,0,1.19,0,1.74,0Z"/><path d="M269.39.88c.51,0,.62,0,.67-.14l.13-.26A2,2,0,0,1,271,.19l0,.07-.9,2.55L268.9,6.54l0,0a7.71,7.71,0,0,1,2-2.06A2.11,2.11,0,0,1,272.09,4c.54,0,.74.4.74.84a7.16,7.16,0,0,1-1,2.92,4.79,4.79,0,0,1-.81,1,1.39,1.39,0,0,1-.91.49c-.41,0-.46-.27-.46-.37a.39.39,0,0,1,.33-.4.31.31,0,0,1,.18.08.8.8,0,0,0,.32.16c.19,0,.32-.19.5-.62a12.77,12.77,0,0,0,.9-3.22c0-.24-.09-.38-.26-.38a1.29,1.29,0,0,0-.67.34,7.75,7.75,0,0,0-1.59,1.66,19.76,19.76,0,0,0-1.51,2.6.22.22,0,0,1-.22.15c-.14,0-.47,0-.37-.33l2.23-6.7c.26-.79.31-1-.83-1h-1.36c-.4,0-.4,0-.57.55l-1.82,5.5c-.39,1.16-.4,1.44.22,1.49l.46,0a.18.18,0,0,1-.05.31c-.62,0-1.06,0-1.59,0s-.94,0-1.53,0a.2.2,0,0,1,0-.31l.44,0c.55-.05.7-.21,1.12-1.49l1.83-5.5c.19-.55.13-.55-.27-.55h-1a2,2,0,0,0-2.09,1.12.21.21,0,0,1-.29-.12,17.86,17.86,0,0,0,.9-1.67.17.17,0,0,1,.23,0c0,.22.14.29.9.29Z"/><path d="M275.14,5a4.85,4.85,0,0,0-.92,1.46,3.69,3.69,0,0,0,1.67-.92,1.43,1.43,0,0,0,.48-.85.27.27,0,0,0-.28-.29c-.18,0-.5.12-.95.6m2-.24c0,1-1.23,1.57-3,2.07A3.38,3.38,0,0,0,273.92,8a.63.63,0,0,0,.6.71c.45,0,.76-.25,1.31-.72a.17.17,0,0,1,.16.21,2.54,2.54,0,0,1-2,1.14c-.74,0-1-.7-1-1.31a4.64,4.64,0,0,1,1.85-3.35,2.4,2.4,0,0,1,1.5-.6.77.77,0,0,1,.78.74"/><path d="M280.87,4.9a4.77,4.77,0,0,0-1.12,2.29.41.41,0,0,0,.37.44,1.13,1.13,0,0,0,.83-.49,5,5,0,0,0,1.13-2.33.4.4,0,0,0-.37-.42c-.21,0-.45.09-.84.51m.94,6.3c0-.21-.14-.48-.54-.76a4.15,4.15,0,0,0-1.16-.62,2,2,0,0,0-1.16.46,1,1,0,0,0-.47.81c0,.59.83,1,1.68,1,.58,0,1.65-.25,1.65-.85m.45-7.06a1.66,1.66,0,0,0,.29.11,2.55,2.55,0,0,0,.6-.07,2.52,2.52,0,0,1,.56-.1c.18,0,.26.12.26.31s-.15.39-.27.39a1.85,1.85,0,0,1-.41-.07,2.71,2.71,0,0,0-.46-.07c-.06,0-.13,0-.11.07a2.37,2.37,0,0,1,.08.48,3.15,3.15,0,0,1-1.58,2.49,4.6,4.6,0,0,1-.88.32.54.54,0,0,0-.28.44.74.74,0,0,0,.41.58c.29.2.78.48,1.22.75.73.42.94.81.94,1.21,0,.7-1,1.48-3,1.48-.91,0-2-.35-2-1.18s1.46-1.55,2.13-1.76c-.32-.21-.4-.4-.4-.57a2.73,2.73,0,0,1,.56-1A1.12,1.12,0,0,1,279,6.87a3,3,0,0,1,1-2.09A2.72,2.72,0,0,1,281.86,4a1.34,1.34,0,0,1,.4.11"/><path d="M285.68,5.21l-.53,1.57h.06a17,17,0,0,1,1.31-2.1,1.3,1.3,0,0,1,.91-.65c.43,0,.49.42.49.61a1.57,1.57,0,0,1-.26.75c-.15.18-.35.19-.4-.07s-.13-.48-.26-.48-.25.12-.43.37a21.34,21.34,0,0,0-2.12,3.93.22.22,0,0,1-.21.15c-.14,0-.5,0-.42-.33.17-.5.95-2.7,1.29-3.92,0-.14,0-.26-.1-.26-.33,0-.66.34-.89.64-.12,0-.21,0-.2-.2.4-.67.88-1.19,1.47-1.19s.4.84.29,1.18"/><path d="M289.64,5.16a5.51,5.51,0,0,0-1.56,3.23c0,.15.07.23.19.23s.5-.16,1.21-.81a6,6,0,0,0,1.67-2.69.66.66,0,0,0-.63-.44c-.3,0-.5.13-.88.48m2.17-1.42a.53.53,0,0,1,.61.19c-.19.46-1.27,3.21-1.67,4.35-.08.21,0,.28.08.28s.58-.21,1.29-.83a.17.17,0,0,1,.17.16,3.25,3.25,0,0,1-2.09,1.4.34.34,0,0,1-.36-.34,1.54,1.54,0,0,1,.12-.49l.41-1.12h0a5.21,5.21,0,0,1-2.75,2c-.34,0-.54-.35-.54-.7a5.36,5.36,0,0,1,1.09-2.42,5.55,5.55,0,0,1,1.65-1.61,2.18,2.18,0,0,1,1.12-.36.6.6,0,0,1,.3.08.69.69,0,0,1,.25.26Z"/><path d="M295.59,4.94a10.69,10.69,0,0,0-1.78,2.43,2.47,2.47,0,0,0-.39,1.18.26.26,0,0,0,.24.26,3.16,3.16,0,0,0,1.68-1.11,5.3,5.3,0,0,0,1.52-2.4c.15-.53,0-.9-.32-.9a1.67,1.67,0,0,0-1,.54m2.51-3.09c.25-.7.28-.91.11-1l-.29-.2a.16.16,0,0,1,0-.17A5,5,0,0,1,299.43.2l.05.08c-.22.69-.41,1.17-.78,2.2-1.24,3.4-1.82,5.4-1.94,5.77-.05.16,0,.29.08.29a4.05,4.05,0,0,0,1.37-1.12.17.17,0,0,1,.19.16c-.34.68-1.47,1.71-2.12,1.71a.39.39,0,0,1-.4-.4,2.36,2.36,0,0,1,.16-.71l.44-1.24h-.05c-.86,1.15-1.8,2.36-3,2.36-.48,0-.74-.4-.74-.9a5.17,5.17,0,0,1,1.65-3.25A3.67,3.67,0,0,1,296.56,4a.77.77,0,0,1,.64.38Z"/><path d="M300,8c-.11.3-.05.42.09.42a3.83,3.83,0,0,0,1.33-1,13,13,0,0,0,2.2-3.33.58.58,0,0,1,.61.23c-.13.33-.94,2.38-1.46,3.86-.06.16-.08.31.05.31s.9-.59,1.22-1a.16.16,0,0,1,.22.17,3.67,3.67,0,0,1-2.18,1.59.35.35,0,0,1-.31-.44l.85-2.28h0c-.89,1.13-2.44,2.73-3.11,2.73-.51,0-.57-.52-.36-1.06l1.14-3c.09-.24.1-.36,0-.36s-.88.55-1.18.86a.18.18,0,0,1-.21-.19A4.16,4.16,0,0,1,301,4c.17,0,.45.16.38.37Z"/><path d="M307.14,5.16a5.51,5.51,0,0,0-1.56,3.23c0,.15.07.23.19.23s.49-.16,1.2-.81a5.87,5.87,0,0,0,1.67-2.69.64.64,0,0,0-.62-.44c-.3,0-.5.13-.88.48m2.16-1.42a.54.54,0,0,1,.62.19c-.19.46-1.28,3.21-1.67,4.35-.08.21,0,.28.08.28s.58-.21,1.29-.83a.17.17,0,0,1,.17.16,3.25,3.25,0,0,1-2.09,1.4.34.34,0,0,1-.36-.34,1.54,1.54,0,0,1,.12-.49l.41-1.12h0a5.16,5.16,0,0,1-2.74,2c-.35,0-.54-.35-.54-.7a5.36,5.36,0,0,1,1.09-2.42,5.55,5.55,0,0,1,1.65-1.61,2.18,2.18,0,0,1,1.12-.36.63.63,0,0,1,.3.08.69.69,0,0,1,.25.26Z"/><path d="M312.71,4.69l-1.16,3.39c-.08.23,0,.31.08.31a4.56,4.56,0,0,0,1.42-1.12c.13,0,.2.07.18.22a4.12,4.12,0,0,1-2.39,1.8A.37.37,0,0,1,310.5,9a2.28,2.28,0,0,1,.18-.71l1.2-3.55h-1c0-.13,0-.3.14-.35l1-.18.69-1.23a.43.43,0,0,1,.48.08l-.36,1.22h1.35a.35.35,0,0,1-.15.46Z"/><path d="M316.07,5a4.85,4.85,0,0,0-.92,1.46,3.69,3.69,0,0,0,1.67-.92,1.43,1.43,0,0,0,.48-.85.27.27,0,0,0-.28-.29c-.18,0-.5.12-.95.6m2-.24c0,1-1.23,1.57-3,2.07A3.38,3.38,0,0,0,314.85,8a.63.63,0,0,0,.6.71c.45,0,.76-.25,1.31-.72a.17.17,0,0,1,.16.21,2.54,2.54,0,0,1-2,1.14c-.74,0-1-.7-1-1.31a4.66,4.66,0,0,1,1.86-3.35,2.39,2.39,0,0,1,1.5-.6.78.78,0,0,1,.78.74"/><path d="M322.76,4.74a.42.42,0,0,1-.22.38.2.2,0,0,1-.24-.1,1,1,0,0,0-.76-.39.5.5,0,0,0-.51.49,2.11,2.11,0,0,0,.42,1.14,2.27,2.27,0,0,1,.48,1.38,1.77,1.77,0,0,1-.65,1.2,2,2,0,0,1-1.26.45.74.74,0,0,1-.76-.67.61.61,0,0,1,.19-.41.26.26,0,0,1,.33,0,1.39,1.39,0,0,0,.86.5.68.68,0,0,0,.6-.71,2.52,2.52,0,0,0-.46-1.09,2.63,2.63,0,0,1-.44-1.16,1.67,1.67,0,0,1,.75-1.31A1.63,1.63,0,0,1,322,4a.75.75,0,0,1,.75.71"/><path d="M326.75,4.76a.6.6,0,0,1-.61.59.26.26,0,0,1-.25-.23c0-.31,0-.68-.43-.68s-.66.26-1,.83a5.29,5.29,0,0,0-.83,2.58c0,.63.23.81.53.81a2.32,2.32,0,0,0,1.35-.76.15.15,0,0,1,.16.21,2.8,2.8,0,0,1-2.06,1.18c-.48,0-.93-.37-.93-1.33a4.82,4.82,0,0,1,1.58-3.21A2.44,2.44,0,0,1,325.83,4c.63,0,.92.35.92.73"/><path d="M330,.28l-.9,2.54-1.28,3.72,0,0a8.25,8.25,0,0,1,2-2.06A2.16,2.16,0,0,1,331,4a.73.73,0,0,1,.75.83,7.18,7.18,0,0,1-1,2.92,4.05,4.05,0,0,1-.81,1,1.37,1.37,0,0,1-.91.49c-.41,0-.46-.27-.46-.37a.4.4,0,0,1,.34-.4.29.29,0,0,1,.17.08.77.77,0,0,0,.33.16c.19,0,.31-.19.5-.62a13,13,0,0,0,.89-3.22c0-.23-.08-.37-.26-.37a1.36,1.36,0,0,0-.67.34,7.9,7.9,0,0,0-1.58,1.65,19.76,19.76,0,0,0-1.51,2.6.23.23,0,0,1-.23.15c-.13,0-.46,0-.36-.33l2.37-7c.28-.82.34-1,.14-1.13L328.5.65a.11.11,0,0,1,0-.16A7.06,7.06,0,0,1,330,.2Z"/><path d="M334.13,5a7.26,7.26,0,0,0-1.25,3.11c0,.44.15.8.51.8s.59-.11,1-.65a7.72,7.72,0,0,0,1.16-3c0-.38-.07-.82-.5-.82-.25,0-.55.11-.91.6m2.27.6a4.75,4.75,0,0,1-1.33,2.83,2.38,2.38,0,0,1-1.78.85c-.79,0-1.32-.58-1.24-1.65a4.67,4.67,0,0,1,1.36-2.79A2.37,2.37,0,0,1,335.12,4c.89,0,1.33.66,1.28,1.57"/><path d="M338.79,5a7.13,7.13,0,0,0-1.25,3.11c0,.44.15.8.51.8s.59-.11,1-.65a7.88,7.88,0,0,0,1.16-3c0-.38-.07-.82-.5-.82-.25,0-.55.11-.91.6m2.26.6a4.67,4.67,0,0,1-1.32,2.83,2.38,2.38,0,0,1-1.78.85c-.79,0-1.32-.58-1.24-1.65a4.71,4.71,0,0,1,1.35-2.79A2.4,2.4,0,0,1,339.78,4c.89,0,1.32.66,1.27,1.57"/><path d="M342.12,8.3c-.1.29-.09.41.05.41s.86-.61,1.43-1.26c.13,0,.2,0,.2.18-.32.62-1.11,1.66-2.14,1.66-.37,0-.49-.18-.49-.38a4,4,0,0,1,.28-1.06l2-5.89c.3-.87.17-1,0-1.08l-.23-.1c-.06-.05-.06-.17,0-.2A7.18,7.18,0,0,1,344.76.2l.06.08c-.16.45-.28.79-.73,2.14Z"/><path d="M263.08,18.69a7.26,7.26,0,0,0-1.25,3.11c0,.44.15.8.51.8s.59-.11,1-.65a7.72,7.72,0,0,0,1.16-3c0-.39-.07-.82-.5-.82-.25,0-.55.11-.91.6m2.27.59A4.74,4.74,0,0,1,264,22.11a2.4,2.4,0,0,1-1.79.86c-.79,0-1.32-.58-1.24-1.65a4.67,4.67,0,0,1,1.36-2.8,2.41,2.41,0,0,1,1.72-.81c.88,0,1.32.67,1.27,1.57"/><path d="M268.09,18.35c-.07.21-.17.61-.32,1.16-.37,1.39-.71,2.59-1.11,4a4.92,4.92,0,0,1-1,2,2.35,2.35,0,0,1-1.5.67c-.67,0-.91-.42-.91-.61a.72.72,0,0,1,.29-.56.2.2,0,0,1,.29.05,1.48,1.48,0,0,0,.94.51c.25,0,.51-.09.8-1.05.57-2,1-4.11,1.61-6.14h-1a.32.32,0,0,1,.09-.46h1.07a7.68,7.68,0,0,1,1.4-3,2.53,2.53,0,0,1,2-1,.91.91,0,0,1,1,.82c0,.33-.34.71-.54.71s-.16-.11-.17-.2c0-.68-.39-.91-.7-.91a1.27,1.27,0,0,0-.89.68,9,9,0,0,0-1.16,2.9h1.55a.33.33,0,0,1-.12.46Z"/><path d="M273.69,18.59a4.72,4.72,0,0,0-1.12,2.29.41.41,0,0,0,.38.44,1.13,1.13,0,0,0,.82-.49,4.9,4.9,0,0,0,1.13-2.33.39.39,0,0,0-.37-.42c-.21,0-.45.08-.84.51m.94,6.3c0-.21-.14-.48-.54-.76a3.89,3.89,0,0,0-1.16-.62,2,2,0,0,0-1.15.46,1,1,0,0,0-.48.81c0,.59.84,1,1.68,1,.58,0,1.65-.25,1.65-.85m.45-7.06a1.68,1.68,0,0,0,.3.11,2.17,2.17,0,0,0,.59-.08,3,3,0,0,1,.56-.09c.18,0,.27.12.27.31s-.15.38-.28.38a1.84,1.84,0,0,1-.41-.06,2,2,0,0,0-.46-.07c-.06,0-.12,0-.11.07a2.31,2.31,0,0,1,.09.47,3.17,3.17,0,0,1-1.59,2.5,6.05,6.05,0,0,1-.88.32.53.53,0,0,0-.28.44.75.75,0,0,0,.42.58c.28.2.77.47,1.22.75.72.42.93.81.93,1.21,0,.7-1,1.48-3,1.48-.91,0-2-.35-2-1.18s1.46-1.55,2.13-1.76c-.32-.21-.4-.4-.4-.57a2.73,2.73,0,0,1,.56-1,1.13,1.13,0,0,1-.9-1.12,3,3,0,0,1,1-2.1,2.77,2.77,0,0,1,1.85-.75,1.38,1.38,0,0,1,.4.12"/><path d="M277.14,22c-.1.29-.08.41.05.41.28,0,.86-.61,1.44-1.26a.17.17,0,0,1,.2.18c-.33.62-1.11,1.65-2.15,1.65-.37,0-.48-.17-.48-.37a3.77,3.77,0,0,1,.27-1.06l2-5.89c.3-.88.18-1,0-1.09l-.23-.1a.13.13,0,0,1,0-.2,7.93,7.93,0,0,1,1.57-.37l.07.07c-.17.45-.29.8-.74,2.15Z"/><path d="M281.32,18.69a7.13,7.13,0,0,0-1.25,3.11c0,.44.15.8.51.8s.59-.11,1-.65a7.69,7.69,0,0,0,1.15-3c0-.39-.06-.82-.49-.82-.25,0-.55.11-.91.6m2.26.59a4.62,4.62,0,0,1-1.32,2.83,2.37,2.37,0,0,1-1.78.86c-.8,0-1.32-.58-1.24-1.65a4.71,4.71,0,0,1,1.35-2.8,2.44,2.44,0,0,1,1.72-.81c.89,0,1.32.67,1.27,1.57"/><path d="M286,19.45a4.35,4.35,0,0,0-1.17,2.49c0,.48.22.65.43.65a2.27,2.27,0,0,0,1.2-.84,7.13,7.13,0,0,0,1.69-3.16.4.4,0,0,0-.43-.45c-.34,0-.95.42-1.72,1.31m-.76.43h0c.88-1.32,1.71-2.17,2.65-2.17a1,1,0,0,1,1.07,1.13,4.56,4.56,0,0,1-1.61,2.92A3.69,3.69,0,0,1,284.94,23c-.67,0-1-.43-1-1.14a8.42,8.42,0,0,1,.64-2.46L286,15.53c.27-.69.3-.9.13-1l-.29-.2a.16.16,0,0,1,0-.17,4.93,4.93,0,0,1,1.49-.24l.05.07-.63,1.66Z"/><path d="M291.33,18.85a5.51,5.51,0,0,0-1.56,3.23c0,.15.07.23.19.23s.49-.16,1.2-.81a6,6,0,0,0,1.67-2.69.65.65,0,0,0-.62-.45c-.3,0-.5.14-.88.49m2.16-1.42a.5.5,0,0,1,.61.19c-.18.46-1.27,3.21-1.67,4.34-.07.22,0,.29.09.29s.57-.21,1.29-.83a.17.17,0,0,1,.17.16A3.24,3.24,0,0,1,291.89,23a.34.34,0,0,1-.36-.33,1.54,1.54,0,0,1,.12-.49l.41-1.12h0A5.19,5.19,0,0,1,289.28,23a.62.62,0,0,1-.55-.69,5.42,5.42,0,0,1,1.1-2.42,5.43,5.43,0,0,1,1.65-1.61,2.18,2.18,0,0,1,1.12-.36.78.78,0,0,1,.3.07.83.83,0,0,1,.25.27Z"/><path d="M295.43,22c-.1.29-.09.41.05.41s.86-.61,1.43-1.26c.13,0,.2.05.2.18A2.8,2.8,0,0,1,295,23c-.38,0-.49-.17-.49-.37a3.58,3.58,0,0,1,.28-1.06l2-5.89c.3-.88.17-1,0-1.09l-.22-.1a.13.13,0,0,1,0-.2,7.75,7.75,0,0,1,1.57-.37l.06.07c-.16.45-.28.8-.73,2.15Z"/><path d="M301.66,18.85a5.56,5.56,0,0,0-1.55,3.23c0,.15.07.23.18.23s.5-.16,1.21-.81a6,6,0,0,0,1.67-2.69.65.65,0,0,0-.62-.45c-.3,0-.5.14-.89.49m2.17-1.42a.51.51,0,0,1,.61.19c-.19.46-1.27,3.21-1.67,4.34-.07.22,0,.29.09.29s.57-.21,1.28-.83a.17.17,0,0,1,.18.16,3.26,3.26,0,0,1-2.1,1.39.34.34,0,0,1-.36-.33,1.7,1.7,0,0,1,.13-.49L302.4,21h0A5.19,5.19,0,0,1,299.62,23a.62.62,0,0,1-.55-.69,5.42,5.42,0,0,1,1.1-2.42,5.53,5.53,0,0,1,1.64-1.61,2.24,2.24,0,0,1,1.12-.36.69.69,0,0,1,.3.07.74.74,0,0,1,.25.27Z"/><path d="M309.38,17.89a10.91,10.91,0,0,1,1-2.37,1,1,0,0,0-.91-1,1.52,1.52,0,0,0-1.25.9,10,10,0,0,0-.94,2.43Zm-2.26.46c-.07.21-.17.61-.28,1-.4,1.39-.75,2.77-1.17,4.14a5.07,5.07,0,0,1-1,2,2.1,2.1,0,0,1-1.42.64.75.75,0,0,1-.81-.64.47.47,0,0,1,.24-.44c.17-.15.26-.05.36.11a1,1,0,0,0,.75.46c.22,0,.52-.19.78-1,.64-2.09,1.05-4.23,1.65-6.26h-1a.3.3,0,0,1,.06-.46h1.09a7.3,7.3,0,0,1,1.25-2.68,2.5,2.5,0,0,1,2-1c.61,0,1.15.26,1.1.81l0,0a2.69,2.69,0,0,1,2.14-1.13.93.93,0,0,1,1,.81.85.85,0,0,1-.44.75c-.16.08-.26,0-.26-.16,0-.75-.45-1-.77-1a1.3,1.3,0,0,0-1,.66,9.76,9.76,0,0,0-1.17,2.92h1.55a.32.32,0,0,1-.13.46h-1.53c-.47,1.63-.87,3.14-1.36,4.72a5.9,5.9,0,0,1-1,2.15,2.17,2.17,0,0,1-1.42.63.74.74,0,0,1-.81-.63.49.49,0,0,1,.23-.45c.18-.15.26-.05.36.11a1,1,0,0,0,.75.46c.23,0,.54-.2.8-1.13.58-2,1.06-4.23,1.54-5.86Z"/><path d="M313.24,18.85a5.56,5.56,0,0,0-1.55,3.23c0,.15.07.23.18.23s.5-.16,1.21-.81a6,6,0,0,0,1.67-2.69.65.65,0,0,0-.62-.45c-.3,0-.5.14-.89.49m2.17-1.42a.51.51,0,0,1,.61.19c-.18.46-1.27,3.21-1.67,4.34-.07.22,0,.29.09.29s.57-.21,1.28-.83a.17.17,0,0,1,.18.16A3.26,3.26,0,0,1,313.81,23a.35.35,0,0,1-.37-.33,1.7,1.7,0,0,1,.13-.49L314,21h0A5.19,5.19,0,0,1,311.2,23a.62.62,0,0,1-.55-.69,5.42,5.42,0,0,1,1.1-2.42,5.53,5.53,0,0,1,1.64-1.61,2.24,2.24,0,0,1,1.13-.36.68.68,0,0,1,.29.07.74.74,0,0,1,.25.27Z"/><path d="M319.47,15.62a.73.73,0,0,1-.65.77.42.42,0,0,1-.44-.46c0-.27.18-.78.66-.78a.42.42,0,0,1,.43.47M318,18.75c.06-.14.06-.24,0-.24a2.91,2.91,0,0,0-1,.66.18.18,0,0,1-.16-.21,3.64,3.64,0,0,1,2.06-1.24.32.32,0,0,1,.2.12c.07.07.07.19-.08.55l-1.48,3.54c0,.12-.06.27,0,.27a3,3,0,0,0,1.29-.92.19.19,0,0,1,.19.21A3.92,3.92,0,0,1,316.65,23a.26.26,0,0,1-.2-.11.31.31,0,0,1-.05-.34Z"/><path d="M321.61,18.9l-.53,1.57h.06a17.19,17.19,0,0,1,1.31-2.11,1.31,1.31,0,0,1,.91-.64c.43,0,.49.42.49.61a1.54,1.54,0,0,1-.26.74c-.15.19-.35.2-.4-.06s-.13-.49-.26-.49-.25.13-.43.38a21.56,21.56,0,0,0-2.12,3.92.22.22,0,0,1-.21.15c-.14,0-.5,0-.42-.32.17-.5.95-2.7,1.29-3.93,0-.13,0-.26-.1-.26-.33,0-.66.35-.89.65-.12,0-.21-.05-.2-.2.4-.67.88-1.19,1.47-1.19s.4.84.29,1.18"/><path d="M326.76,18.43a.44.44,0,0,1-.23.38c-.08,0-.16,0-.23-.1a1,1,0,0,0-.76-.4.5.5,0,0,0-.51.5,2.17,2.17,0,0,0,.42,1.14,2.2,2.2,0,0,1,.47,1.38,1.67,1.67,0,0,1-.65,1.19A1.88,1.88,0,0,1,324,23a.73.73,0,0,1-.76-.66.63.63,0,0,1,.18-.41.25.25,0,0,1,.34,0,1.37,1.37,0,0,0,.86.5.68.68,0,0,0,.6-.71,2.6,2.6,0,0,0-.46-1.1,2.43,2.43,0,0,1-.44-1.16,1.64,1.64,0,0,1,.75-1.3,1.59,1.59,0,0,1,.92-.42.76.76,0,0,1,.75.72"/><path d="M263.25,32.54a5.56,5.56,0,0,0-1.55,3.22c0,.15.07.24.18.24s.5-.16,1.21-.81a6,6,0,0,0,1.67-2.69.65.65,0,0,0-.62-.45c-.3,0-.5.14-.89.49m2.17-1.42a.52.52,0,0,1,.61.18c-.19.46-1.27,3.22-1.67,4.35-.07.21,0,.29.09.29s.57-.21,1.28-.84a.18.18,0,0,1,.18.16,3.27,3.27,0,0,1-2.1,1.4.35.35,0,0,1-.36-.34,1.67,1.67,0,0,1,.13-.48l.41-1.12,0,0a5.16,5.16,0,0,1-2.74,2,.63.63,0,0,1-.55-.7,5.45,5.45,0,0,1,1.1-2.41,5.41,5.41,0,0,1,1.64-1.61,2.14,2.14,0,0,1,1.12-.36.58.58,0,0,1,.3.07.78.78,0,0,1,.25.26Z"/><path d="M268.65,32.06l-1.16,3.39c-.07.24,0,.31.09.31A4.41,4.41,0,0,0,269,34.64c.12,0,.2.08.17.23a4.08,4.08,0,0,1-2.39,1.79.37.37,0,0,1-.33-.34,2.56,2.56,0,0,1,.17-.71l1.21-3.55h-1a.31.31,0,0,1,.13-.35l1-.17.7-1.23a.41.41,0,0,1,.47.07l-.36,1.22h1.36a.36.36,0,0,1-.15.46Z"/><path d="M278.89,28.26c.64,0,.81,0,1.06-.28.06,0,.19,0,.21.06a9.47,9.47,0,0,0-.71,1.77.18.18,0,0,1-.28,0c.06-1,0-1.16-1.19-1.16h-.76c-.4,0-.41,0-.57.55l-1.72,5.49c-.36,1.16-.4,1.43.22,1.48l.47,0a.18.18,0,0,1-.05.31l-1.65,0c-.51,0-.93,0-1.52,0a.2.2,0,0,1,0-.31l.48,0c.55,0,.73-.21,1.13-1.48l1.72-5.49c.17-.55.13-.55-.27-.55h-.82a2,2,0,0,0-2.09,1.12.21.21,0,0,1-.29-.12,17.86,17.86,0,0,0,.9-1.67.16.16,0,0,1,.24,0c0,.22.13.28.89.28Z"/><path d="M278.68,35.41c-.12.3-.05.43.08.43s.69-.4,1.34-1a12.94,12.94,0,0,0,2.19-3.32c.26-.05.56.07.61.22-.13.34-.94,2.38-1.46,3.86-.06.17-.07.32.05.32s.9-.59,1.22-1a.18.18,0,0,1,.23.18,3.68,3.68,0,0,1-2.18,1.58.36.36,0,0,1-.32-.44l.85-2.28h0c-.9,1.14-2.45,2.73-3.12,2.73-.51,0-.57-.51-.36-1.06l1.15-3c.08-.23.1-.36,0-.36s-.89.55-1.19.86a.17.17,0,0,1-.21-.18,4.21,4.21,0,0,1,2.16-1.49c.16,0,.45.16.37.38Z"/><path d="M285.81,32c-.07.21-.17.61-.32,1.16-.37,1.39-.71,2.59-1.11,4a4.78,4.78,0,0,1-1,2,2.3,2.3,0,0,1-1.5.68c-.67,0-.91-.43-.91-.61a.72.72,0,0,1,.29-.56.2.2,0,0,1,.29,0,1.48,1.48,0,0,0,.94.51c.25,0,.51-.09.8-1,.57-2,1-4.11,1.61-6.14h-1a.32.32,0,0,1,.09-.46H285a7.62,7.62,0,0,1,1.4-3,2.53,2.53,0,0,1,2-1,.91.91,0,0,1,1,.82c0,.32-.34.71-.54.71s-.16-.11-.17-.2c0-.68-.39-.91-.7-.91a1.32,1.32,0,0,0-.9.67,9.31,9.31,0,0,0-1.15,2.91h1.55a.33.33,0,0,1-.12.46Z"/><path d="M289.08,32l-1.16,3.41c-.08.24,0,.31.09.31a4.52,4.52,0,0,0,1.42-1.12c.12,0,.2.08.17.23a4.14,4.14,0,0,1-2.39,1.79.37.37,0,0,1-.34-.34,2.34,2.34,0,0,1,.18-.71L288.26,32h-1c0-.13,0-.41.14-.46h1l.7-1.27a.41.41,0,0,1,.47.07l-.36,1.2h1.36a.37.37,0,0,1-.15.46Z"/><path d="M293.28,32.11a.45.45,0,0,1-.23.39.2.2,0,0,1-.23-.1,1,1,0,0,0-.76-.4.5.5,0,0,0-.51.5,2.12,2.12,0,0,0,.42,1.13,2.24,2.24,0,0,1,.47,1.39,1.69,1.69,0,0,1-.65,1.19,1.88,1.88,0,0,1-1.25.45.73.73,0,0,1-.76-.66.63.63,0,0,1,.18-.41.25.25,0,0,1,.34,0,1.37,1.37,0,0,0,.86.5.68.68,0,0,0,.6-.71,2.6,2.6,0,0,0-.46-1.1,2.47,2.47,0,0,1-.44-1.16,1.67,1.67,0,0,1,.75-1.31,1.63,1.63,0,0,1,.92-.41.75.75,0,0,1,.75.71"/><path d="M296.43,30.06c.37-1.17.39-1.37-.28-1.49l-.31-.05a.18.18,0,0,1,.05-.29c.52,0,.92,0,1.45,0s.93,0,1.54,0a.18.18,0,0,1,0,.29l-.34.05c-.71.1-.76.25-1.15,1.49l-.9,2.88c-.57,1.85-.41,3.3,1.62,3.3,1.73,0,2.58-1.55,3.08-3.09l.57-1.76a16.33,16.33,0,0,0,.5-1.93c.09-.55.15-.8-.47-.89l-.35-.05a.19.19,0,0,1,.05-.29l1.33,0,1.35,0a.18.18,0,0,1,0,.29l-.29.05c-.63.12-.73.29-1,.93-.12.28-.37,1.08-.61,1.89l-.58,1.83a5.69,5.69,0,0,1-1.46,2.61,3.69,3.69,0,0,1-2.35.86c-2.27,0-3.13-1.23-2.42-3.52Z"/><path d="M304.17,34.09l0,0c.88-1.35,2.12-2.72,3.05-2.72a.61.61,0,0,1,.7.68,3.42,3.42,0,0,1-.2.87c-.23.62-1.12,2.65-1.16,2.75s-.06.24,0,.24a2.57,2.57,0,0,0,1.18-.85c.17,0,.19.08.19.18a2.91,2.91,0,0,1-2.14,1.39.37.37,0,0,1-.3-.31c0-.11,0-.2.3-.82s.72-1.83,1-2.46a2.88,2.88,0,0,0,.26-.91c0-.15,0-.3-.2-.3s-1,.63-1.72,1.49a20.11,20.11,0,0,0-1.9,3.16.22.22,0,0,1-.23.15c-.13,0-.47,0-.36-.32l1.45-3.93c.06-.16.06-.28,0-.28a2.14,2.14,0,0,0-1.13.62.15.15,0,0,1-.15-.19,2.63,2.63,0,0,1,1.85-1.16.34.34,0,0,1,.33.51Z"/><path d="M311.74,29.31a.73.73,0,0,1-.65.77.42.42,0,0,1-.44-.46c0-.27.18-.78.66-.78a.42.42,0,0,1,.43.47m-1.49,3.13c.07-.14.07-.24,0-.24a2.91,2.91,0,0,0-1,.66.18.18,0,0,1-.16-.21,3.61,3.61,0,0,1,2.06-1.25c.09,0,.15.08.2.13s.07.18-.08.55l-1.48,3.53c-.05.13-.06.28,0,.28a3,3,0,0,0,1.29-.92.19.19,0,0,1,.19.21,3.92,3.92,0,0,1-2.33,1.48.29.29,0,0,1-.2-.11.31.31,0,0,1-.05-.34Z"/><path d="M313.51,32.49c.09-.24.07-.36-.09-.36s-.77.44-1.16.87a.19.19,0,0,1-.18-.21c.39-.56,1.23-1.39,2-1.39.29,0,.56.36.39.83L313.36,35a2.25,2.25,0,0,0-.13.59c0,.21.1.45.37.45a2.35,2.35,0,0,0,1.35-.92A4.07,4.07,0,0,0,316,32.74a3,3,0,0,0-.12-.89.48.48,0,0,1,.46-.45c.4,0,.49.46.49.78a6.07,6.07,0,0,1-2,3.57,3.2,3.2,0,0,1-1.94.91c-.32,0-.57-.37-.57-.75a3.79,3.79,0,0,1,.31-1.19Z"/><path d="M319.19,32.39a4.83,4.83,0,0,0-.92,1.45,3.51,3.51,0,0,0,1.67-.92,1.41,1.41,0,0,0,.48-.84.26.26,0,0,0-.28-.29c-.18,0-.5.11-.95.6m2-.24c0,1-1.23,1.57-3,2.07a3.33,3.33,0,0,0-.17,1.11.64.64,0,0,0,.6.71c.45,0,.76-.25,1.3-.73a.17.17,0,0,1,.17.22,2.55,2.55,0,0,1-2,1.13c-.74,0-1-.7-1-1.31A4.69,4.69,0,0,1,318.89,32a2.39,2.39,0,0,1,1.5-.6.79.79,0,0,1,.78.75"/><path d="M323.46,32.59l-.53,1.57H323a17.19,17.19,0,0,1,1.31-2.11,1.35,1.35,0,0,1,.91-.65c.43,0,.5.43.5.61a1.56,1.56,0,0,1-.27.75c-.15.19-.34.2-.39-.06s-.14-.49-.27-.49-.25.13-.43.38a21.56,21.56,0,0,0-2.12,3.92.22.22,0,0,1-.21.15c-.14,0-.5,0-.41-.32.16-.5.94-2.71,1.28-3.93,0-.14,0-.26-.1-.26-.32,0-.66.35-.88.65-.13,0-.22,0-.2-.2.4-.67.87-1.2,1.47-1.2s.4.85.28,1.19"/><path d="M328.62,32.11a.44.44,0,0,1-.22.39.22.22,0,0,1-.24-.1,1,1,0,0,0-.76-.4.51.51,0,0,0-.51.5,2.12,2.12,0,0,0,.42,1.13,2.32,2.32,0,0,1,.48,1.39,1.77,1.77,0,0,1-.65,1.19,1.92,1.92,0,0,1-1.26.45.73.73,0,0,1-.76-.66.61.61,0,0,1,.19-.41.24.24,0,0,1,.33,0,1.42,1.42,0,0,0,.86.5.68.68,0,0,0,.6-.71,2.6,2.6,0,0,0-.46-1.1,2.59,2.59,0,0,1-.44-1.16,1.7,1.7,0,0,1,.75-1.31,1.63,1.63,0,0,1,.92-.41.75.75,0,0,1,.75.71"/><path d="M331.84,29.31a.73.73,0,0,1-.65.77.42.42,0,0,1-.44-.46c0-.27.18-.78.66-.78a.42.42,0,0,1,.43.47m-1.49,3.13c.07-.14.07-.24,0-.24a2.91,2.91,0,0,0-1,.66.18.18,0,0,1-.16-.21,3.61,3.61,0,0,1,2.06-1.25c.09,0,.15.08.2.13s.07.18-.08.55l-1.48,3.53c-.05.13-.06.28,0,.28a3,3,0,0,0,1.29-.92.19.19,0,0,1,.19.21A3.92,3.92,0,0,1,329,36.66a.29.29,0,0,1-.2-.11.31.31,0,0,1-.05-.34Z"/><path d="M334.23,32.06l-1.15,3.39c-.08.24,0,.31.08.31a4.41,4.41,0,0,0,1.42-1.12c.13,0,.2.08.18.23a4.14,4.14,0,0,1-2.39,1.79.37.37,0,0,1-.34-.34,2.56,2.56,0,0,1,.17-.71l1.21-3.55h-1c0-.12,0-.3.14-.35l1-.17.7-1.23a.43.43,0,0,1,.48.07l-.37,1.22h1.36a.36.36,0,0,1-.15.46Z"/><path d="M337.67,33.52a14.45,14.45,0,0,1-.19,2.74h0a9.91,9.91,0,0,0,1.05-2.14,10.77,10.77,0,0,0,.46-2.31c0-.36.21-.38.3-.38a.83.83,0,0,1,.35.11.26.26,0,0,1,.11.25,9.81,9.81,0,0,1-1.44,3.8,17.14,17.14,0,0,1-2.06,3c-.92,1.06-1.55,1.26-1.94,1.26a.59.59,0,0,1-.65-.58.5.5,0,0,1,.5-.53.4.4,0,0,1,.33.2.43.43,0,0,0,.35.22,1.22,1.22,0,0,0,.69-.35,4.35,4.35,0,0,0,1.09-1.87,11.35,11.35,0,0,0,.25-2.84c0-1.38-.23-1.87-.47-1.87s-.46.43-.72,1a.18.18,0,0,1-.24-.16c.26-.83.81-1.61,1.42-1.61s.74,1.25.76,2.12"/></g></svg>